<svg width="15" height="14" viewBox="0 0 15 14" fill="none" xmlns="http://www.w3.org/2000/svg">
    <g id="bx:up-arrow">
    <path id="Vector" d="M12.4112 2.7443L2.62274 2.71286C2.52364 2.71285 2.42641 2.73976 2.34152 2.79068C2.25663 2.84161 2.18729 2.91462 2.14098 3.00187C2.09466 3.08912 2.07312 3.18729 2.07867 3.28583C2.08421 3.38436 2.11664 3.47953 2.17246 3.56107L7.04408 10.6166C7.24598 10.9091 7.73431 10.9107 7.93863 10.6195L12.8555 3.59539C12.9124 3.51437 12.9459 3.41937 12.9524 3.32071C12.9589 3.22205 12.9381 3.1235 12.8923 3.03577C12.8465 2.94804 12.7775 2.87449 12.6926 2.8231C12.6078 2.77172 12.5105 2.74446 12.4112 2.7443ZM7.49567 9.35847L3.65684 3.79924L11.3701 3.82401L7.49567 9.35847Z" fill="#4485FD"/>
    </g>
</svg>
